# xmcd
#
# Track frame offsets:
#	150
#	11526
#	23699
#	34971
#	45889
#	56124
#	70634
#	83183
#	99086
#	109545
#	124817
#	135963
#	148802
#	161876
#	174227
#	184055
#	194463
#	206546
#	217555
#	230049
#
# Disc length: 3191 seconds
#
# Revision: 1
# Processed by: cddbd v1.5.2PL0 Copyright (c) Steve Scherf et al.
# Submitted via: audiograbber 1.83.01
#
DISCID=050c7514
DTITLE=Philomena Begley - Once Around The Dance Floor [CD2)
DYEAR=1900
DGENRE=
TTITLE0=I Wonder Where I'll Find You At Tonight
TTITLE1=One Night Of Cheating
TTITLE2=A Fool Like Me
TTITLE3=Every Second
TTITLE4=If I Had The Right
TTITLE5=Dancing Your Memory Away
TTITLE6=Jeannie's Afraid Of The Dark
TTITLE7=My Elusive Dreams
TTITLE8=Sweet Baby Jane
TTITLE9=Cherro Moana Marie
TTITLE10=Wildwood Flower
TTITLE11=What's Your Mama's Name
TTITLE12=Laugh With Me
TTITLE13=Today, Tomorrow And Forever
TTITLE14=Cinco De Mayo
TTITLE15=Daddy Dumplin'
TTITLE16=A Walking Piece Of Heaven
TTITLE17=There Goes My Heart Again
TTITLE18=Hello Mary Lou
TTITLE19=Truck Driving Sweetheart
EXTD=
EXTT0=
EXTT1=
EXTT2=
EXTT3=
EXTT4=
EXTT5=
EXTT6=
EXTT7=
EXTT8=
EXTT9=
EXTT10=
EXTT11=
EXTT12=
EXTT13=
EXTT14=
EXTT15=
EXTT16=
EXTT17=
EXTT18=
EXTT19=
PLAYORDER=
